<?xml version="1.0" encoding="UTF-8" standalone="no"?>
<!-- Created with Inkscape (http://www.inkscape.org/) -->

<svg
   width="34.208717mm"
   height="32.206005mm"
   viewBox="0 0 34.208717 32.206005"
   version="1.1"
   id="svg1"
   sodipodi:docname="dr4433_iron_hot_cool_font_v2.svg"
   inkscape:export-filename="dr4433-logo-motorcycle-vanilla.svg"
   inkscape:export-xdpi="96"
   inkscape:export-ydpi="96"
   inkscape:version="1.3.2 (091e20e, 2023-11-25, custom)"
   xmlns:inkscape="http://www.inkscape.org/namespaces/inkscape"
   xmlns:sodipodi="http://sodipodi.sourceforge.net/DTD/sodipodi-0.dtd"
   xmlns:xlink="http://www.w3.org/1999/xlink"
   xmlns="http://www.w3.org/2000/svg"
   xmlns:svg="http://www.w3.org/2000/svg">
  <sodipodi:namedview
     id="namedview1"
     pagecolor="#ffffff"
     bordercolor="#000000"
     borderopacity="0.25"
     inkscape:showpageshadow="2"
     inkscape:pageopacity="0.0"
     inkscape:pagecheckerboard="0"
     inkscape:deskcolor="#d1d1d1"
     inkscape:document-units="mm"
     inkscape:zoom="5.0277891"
     inkscape:cx="62.452899"
     inkscape:cy="60.463953"
     inkscape:window-width="1440"
     inkscape:window-height="830"
     inkscape:window-x="-6"
     inkscape:window-y="-6"
     inkscape:window-maximized="1"
     inkscape:current-layer="layer1" />
  <defs
     id="defs1">
    <pattern
       inkscape:collect="always"
       xlink:href="#ticks"
       preserveAspectRatio="xMidYMid"
       id="pattern82"
       patternTransform="scale(0.11)"
       x="0"
       y="0" />
    <pattern
       patternUnits="userSpaceOnUse"
       width="60"
       height="60"
       preserveAspectRatio="xMidYMid"
       style="fill:#000000"
       id="ticks"
       inkscape:stockid="Ticks"
       inkscape:collect="always"
       inkscape:isstock="true"
       inkscape:label="Ticks">
      <path
         id="path28"
         d="M 0,0 H 10 V 50 H 0 Z M 79.142136,3.7867966 86.213203,10.857864 50.857864,46.213203 43.786797,39.142136 Z M 150,20 V 30 H 100 V 20 Z m 56.2132,19.142136 -7.07106,7.071067 -35.35534,-35.355339 7.07106,-7.0710674 z M 250,50 H 240 V 0 h 10 z M 19.142136,63.786797 26.213203,70.857864 -9.1421356,106.2132 -16.213203,99.142136 Z M 90,80 V 90 H 40 V 80 Z m 56.2132,19.142136 -7.07106,7.071064 -35.35534,-35.355336 7.07106,-7.071067 z M 190,110 H 180 V 60 h 10 z m 40.85786,-3.7868 -7.07106,-7.071064 35.35534,-35.355339 7.07106,7.071067 z M 30,140 v 10 h -50 v -10 z m 56.213203,19.14214 -7.071067,7.07106 -35.355339,-35.35534 7.071067,-7.07106 z M 130,170 h -10 v -50 h 10 z m 40.85786,-3.7868 -7.07106,-7.07106 35.35534,-35.35534 7.07106,7.07106 z M 220,150 v -10 h 50 v 10 z m -193.786797,69.14214 -7.071067,7.07106 -35.355339,-35.35534 7.0710674,-7.07106 z M 70,230 H 60 v -50 h 10 z m 40.85786,-3.7868 -7.07106,-7.07106 35.35534,-35.35534 7.07106,7.07106 z M 160,210 v -10 h 50 v 10 z m 63.7868,-19.14214 7.07106,-7.07106 35.35534,35.35534 -7.07106,7.07106 z M 10,290 H 0 v -50 h 10 z m 40.857864,-3.7868 -7.071067,-7.07106 35.355339,-35.35534 7.071067,7.07106 z M 100,270 v -10 h 50 v 10 z m 63.7868,-19.14214 7.07106,-7.07106 35.35534,35.35534 -7.07106,7.07106 z M 240,240 h 10 v 50 h -10 z"
         style="stroke-width:10;stroke-linecap:square;paint-order:markers fill stroke;stop-color:#000000"
         transform="scale(0.25)" />
    </pattern>
    <linearGradient
       id="linearGradient75"
       inkscape:collect="always">
      <stop
         style="stop-color:#a02118;stop-opacity:1;"
         offset="0"
         id="stop75" />
      <stop
         style="stop-color:#223f36;stop-opacity:0.57399106;"
         offset="0.52512562"
         id="stop77" />
      <stop
         style="stop-color:#1b2b00;stop-opacity:0.50896859;"
         offset="0.71482408"
         id="stop78" />
      <stop
         style="stop-color:#2a2611;stop-opacity:0;"
         offset="0.96775544"
         id="stop76" />
    </linearGradient>
    <linearGradient
       inkscape:collect="always"
       xlink:href="#linearGradient75"
       id="linearGradient76"
       x1="116.94375"
       y1="117.98789"
       x2="154.10622"
       y2="105.47868"
       gradientUnits="userSpaceOnUse"
       gradientTransform="translate(-2.5292968e-6)" />
  </defs>
  <g
     id="layer1"
     transform="translate(-117.34891,-101.86952)">
    <ellipse
       style="display:inline;mix-blend-mode:normal;fill:url(#linearGradient76);fill-opacity:1;fill-rule:nonzero;stroke-width:0.208468"
       id="color-gradient-circle"
       inkscape:label="color-gradient-circle"
       cx="134.34891"
       cy="117.98789"
       rx="17"
       ry="16" />
    <ellipse
       style="display:inline;fill:url(#pattern82);fill-opacity:1;stroke:#000000;stroke-width:0.206005"
       id="texture-circle"
       cx="134.45462"
       cy="117.97252"
       rx="17"
       ry="16"
       inkscape:label="texture-circle"
       transform="translate(-1.0625e-6)" />
    <g
       id="silencer"
       transform="translate(-19.170667,42.287593)"
       inkscape:label="silencer"
       style="display:inline">
      <path
         style="fill:none;fill-opacity:1;stroke:#000000;stroke-width:0.206005;stroke-opacity:1"
         d="m 89.876634,62.866306 c 4.582049,-1.507726 9.1641,-3.015453 13.815836,-4.042395 4.65173,-1.026942 9.37314,-1.573097 12.31664,-1.86199 2.94349,-0.288893 4.10906,-0.320523 6.76222,-0.13601 2.65315,0.184512 6.79389,0.585168 10.27266,0.994257 3.47876,0.40909 6.29556,0.826615 8.42083,1.244139 2.12527,0.417525 3.55901,0.835049 4.74042,1.164008 1.18141,0.328958 2.11049,0.569352 2.70067,0.713798 0.59017,0.144446 0.84144,0.192945 1.09272,0.241446"
         id="path5"
         transform="matrix(0.28282795,0,0,0.31793696,116.43828,64.122066)" />
      <path
         style="fill:none;fill-opacity:1;stroke:#000000;stroke-width:0.206005;stroke-opacity:1"
         d="m 90.731807,67.870273 c 0.251275,0.208764 0.50255,0.417526 0.903743,0.602038 0.401194,0.184511 0.952307,0.344773 2.085149,0.585166 1.132843,0.240392 2.847417,0.560917 6.216384,0.889875 3.368967,0.328959 8.392337,0.666352 11.895387,0.762298 3.50305,0.09595 5.48579,-0.04955 8.83892,-0.362697 3.35313,-0.313143 8.07666,-0.79393 11.20175,-1.154519 3.12508,-0.360589 4.65172,-0.600981 6.55633,-1.146082 1.90462,-0.545102 4.1872,-1.394911 5.72229,-1.972697 1.53509,-0.577786 2.3227,-0.883551 2.81046,-1.052247 0.48777,-0.168696 0.6757,-0.200326 0.93542,-0.280456 0.25972,-0.08013 0.59123,-0.208759 0.81189,-0.273076 0.22066,-0.06432 0.33046,-0.06432 0.51099,-0.111761 0.18054,-0.04745 0.43181,-0.142337 0.68309,-0.237231"
         id="path7"
         transform="matrix(0.29379129,0,0,0.31780788,115.04342,64.102268)" />
      <path
         style="fill:none;fill-opacity:1;stroke:#000000;stroke-width:0.206005;stroke-opacity:1"
         d="m 91.010532,62.480414 c -0.266054,0.208762 -0.532108,0.417523 -0.634518,1.243083 -0.102411,0.825559 -0.04118,2.267917 0.02006,3.710274"
         id="path8"
         transform="matrix(0.28282795,0,0,0.31793696,116.13743,64.248932)" />
      <path
         style="fill:none;fill-opacity:1;stroke:#000000;stroke-width:0.206005;stroke-opacity:1"
         d="m 162.56986,44.460916 c 0.2497,0 0.4994,0 1.63848,0.01121 1.13908,0.01121 3.16753,0.03362 5.19739,-0.0084 2.02986,-0.04203 4.06112,-0.148498 5.48357,-0.05324 1.42244,0.09526 2.23607,0.392258 2.87295,1.500388 0.63687,1.10813 1.09699,3.027394 1.4533,5.051726 0.35631,2.024333 0.60882,4.153736 0.64108,6.997608 0.0323,2.843871 -0.15571,6.402215 -0.2497,9.365166 -0.094,2.962951 -0.094,5.330509 -0.12625,6.865919 -0.0323,1.535411 -0.0968,2.238675 -0.12906,3.240334 -0.0323,1.00166 -0.0323,2.301714 -0.62845,3.921179 -0.5962,1.619466 -1.78858,3.558343 -4.13127,4.761736 -2.34268,1.203393 -5.83567,1.671303 -8.52344,1.884243 -2.68778,0.21294 -4.57034,0.170911 -5.82445,0.149897 -1.25411,-0.02101 -1.87976,-0.02101 -2.70461,-0.127484 -0.82485,-0.10647 -1.8489,-0.31941 -2.73828,-0.42588 -0.88938,-0.10647 -1.64409,-0.10647 -2.49139,-0.127484 -0.84729,-0.02101 -1.78716,-0.06304 -2.77053,-0.0098 -0.98337,0.05324 -2.01022,0.201731 -3.03708,0.350229"
         id="path13"
         transform="matrix(0.28282795,0,0,0.31793696,117.58659,56.573388)" />
      <path
         style="fill:none;fill-opacity:1;stroke:#000000;stroke-width:0.206005;stroke-opacity:1"
         d="m 162.56986,44.460916 c 0.2497,0 0.4994,0 1.63848,0.01121 1.13908,0.01121 3.16753,0.03362 5.19739,-0.0084 2.02986,-0.04203 4.06112,-0.148498 5.48357,-0.05324 1.42244,0.09526 2.23607,0.392258 2.87295,1.500388 0.63687,1.10813 1.09699,3.027394 1.4533,5.051726 0.35631,2.024333 0.60882,4.153736 0.64108,6.997608 0.0323,2.843871 -0.15571,6.402215 -0.2497,9.365166 -0.094,2.962951 -0.094,5.330509 -0.12625,6.865919 -0.0323,1.535411 -0.0968,2.238675 -0.12906,3.240334 -0.0323,1.00166 -0.0323,2.301714 -0.62845,3.921179 -0.5962,1.619466 -1.78858,3.558343 -4.13127,4.761736 -2.34268,1.203393 -5.83567,1.671303 -8.52344,1.884243 -2.68778,0.21294 -4.57034,0.170911 -5.82445,0.149897 -1.25411,-0.02101 -1.87976,-0.02101 -2.70461,-0.127484 -0.82485,-0.10647 -1.8489,-0.31941 -2.73828,-0.42588 -0.88938,-0.10647 -1.64409,-0.10647 -2.49139,-0.127484 -0.84729,-0.02101 -1.78716,-0.06304 -2.77053,-0.0098 -0.98337,0.05324 -2.01022,0.201731 -3.03708,0.350229"
         id="path15"
         transform="matrix(0.25318534,-0.00226424,0,0.26513183,121.71693,60.601776)" />
      <path
         style="fill:none;fill-opacity:1;stroke:#000000;stroke-width:0.206005;stroke-opacity:1"
         d="m 166.57163,20.443254 c -0.10903,0.245319 -0.21806,0.490638 -0.34072,0.776844 -0.12266,0.286205 -0.25895,0.613297 -0.35435,1.076677 -0.0954,0.46338 -0.14992,1.063049 -0.20443,1.390138 -0.0545,0.327089 -0.10903,0.38161 -0.17718,0.504275 -0.0682,0.122665 -0.14992,0.313457 -0.3816,0.40886 -0.23169,0.0954 -0.6133,0.0954 -0.99491,0.0954"
         id="path17"
         transform="matrix(0.28282795,0,0,0.31793696,116.43828,64.122066)" />
      <path
         style="fill:#000000;fill-opacity:1;stroke:#000000;stroke-width:0.076369;stroke-opacity:1"
         d="m 145.24646,86.330365 c -1.69058,-0.160823 -2.67355,-0.332559 -3.16945,-0.55374 l -0.3568,-0.159141 0.0372,-0.656235 c 0.0204,-0.360931 0.0644,-0.686815 0.0976,-0.724189 0.0333,-0.03737 0.71827,-0.298043 1.52227,-0.579263 2.6321,-0.920647 5.98609,-1.531205 7.66004,-1.394431 2.61238,0.21345 4.98647,0.592999 6.75329,1.07966 0.99296,0.273505 1.08598,0.280259 3.83919,0.27873 2.42356,-0.0013 2.91633,-0.02839 3.49327,-0.191707 0.92013,-0.26047 1.4776,-0.700194 1.80135,-1.420902 0.25542,-0.56861 0.25741,-0.589122 0.33784,-3.491566 0.0881,-3.180487 0.0254,-4.492692 -0.26677,-5.57714 -0.27154,-1.007996 -0.29415,-1.018776 -2.13645,-1.018776 h -1.54015 l 0.0789,-0.474925 c 0.0434,-0.261208 0.10294,-0.518595 0.13229,-0.57197 0.0302,-0.05491 0.86899,-0.09705 1.93188,-0.09705 2.1608,0 2.23678,0.02773 2.49712,0.911271 0.35426,1.202333 0.44022,2.524781 0.37677,5.796384 -0.0919,4.737068 -0.16611,5.202489 -0.95785,6.006577 -0.72973,0.741102 -2.37252,1.087397 -4.54062,0.957147 -0.7405,-0.04449 -1.90837,-0.08075 -2.59526,-0.08059 -1.23361,2.53e-4 -1.26248,0.0057 -2.35902,0.442779 -2.40279,0.957725 -2.76698,1.048899 -5.45814,1.366424 -2.30577,0.272053 -5.26241,0.334926 -7.17851,0.15265 z"
         id="path18" />
    </g>
    <text
       xml:space="preserve"
       style="font-size:6.16545px;white-space:pre;inline-size:31.2424;display:inline;fill:#c40027;fill-opacity:1;stroke-width:0.306;stroke-dasharray:none"
       x="74.714058"
       y="77.962494"
       id="text1-7"
       transform="matrix(1.0737678,0,0,1.4636758,56.204568,8.5465905)"
       inkscape:label="33"><tspan
         x="74.714058"
         y="77.962494"
         id="tspan7"><tspan
           style="font-family:'ROG Fonts';-inkscape-font-specification:'ROG Fonts';fill:#000000;stroke:#000000"
           id="tspan1">33</tspan></tspan></text>
    <text
       xml:space="preserve"
       style="font-size:7.86234px;white-space:pre;inline-size:31.2424;display:inline;fill:#c40027;fill-opacity:1;stroke-width:0.306;stroke-dasharray:none"
       x="74.714058"
       y="77.962494"
       id="char-4-front"
       transform="matrix(0.95233059,-0.05188195,0.02821022,1.2334558,61.438687,22.620513)"
       inkscape:label="4"
       inkscape:transform-center-x="0.1521247"
       inkscape:transform-center-y="-0.41858758"><tspan
         x="74.714058"
         y="77.962494"
         id="tspan11"><tspan
           style="font-family:'Matura MT Script Capitals';-inkscape-font-specification:'Matura MT Script Capitals';stroke:#000000"
           id="tspan9">4</tspan></tspan></text>
    <text
       xml:space="preserve"
       style="font-size:4.32196px;white-space:pre;inline-size:31.2424;display:inline;fill:#c40027;fill-opacity:1;stroke-width:0.306;stroke-dasharray:none"
       x="74.714058"
       y="77.962494"
       id="char-D"
       transform="matrix(1.8090143,0.0943251,-0.19721856,3.8868389,2.4108902,-188.30569)"
       inkscape:label="D"
       inkscape:transform-center-x="-0.96071115"
       inkscape:transform-center-y="-0.27881237"><tspan
         x="74.714058"
         y="77.962494"
         id="tspan13"><tspan
           style="font-family:'Curlz MT';-inkscape-font-specification:'Curlz MT';stroke:#000000"
           id="tspan12">D</tspan></tspan></text>
    <text
       xml:space="preserve"
       style="font-size:4.32196px;white-space:pre;inline-size:31.2424;display:inline;fill:#c40027;fill-opacity:1;stroke-width:0.306;stroke-dasharray:none"
       x="74.714058"
       y="77.962494"
       id="char-R"
       transform="matrix(2.1238591,-0.0016727,-0.23708381,3.8813855,-12.171093,-180.84804)"
       inkscape:label="R"
       inkscape:transform-center-x="-1.1283522"
       inkscape:transform-center-y="-0.32845308"><tspan
         x="74.714058"
         y="77.962494"
         id="tspan15"><tspan
           style="font-family:'Curlz MT';-inkscape-font-specification:'Curlz MT';stroke:#000000"
           id="tspan14">R</tspan></tspan></text>
    <text
       xml:space="preserve"
       style="font-size:7.86234px;white-space:pre;inline-size:31.2424;display:inline;fill:#c40027;fill-opacity:1;stroke-width:0.306;stroke-dasharray:none"
       x="74.714058"
       y="77.962494"
       id="char-4-bracket"
       transform="matrix(0.95233059,-0.05188195,0.02821022,1.2334558,66.069615,22.725761)"
       inkscape:label="4"
       inkscape:transform-center-x="0.1521247"
       inkscape:transform-center-y="-0.41858758"><tspan
         x="74.714058"
         y="77.962494"
         id="tspan17"><tspan
           style="font-family:'Matura MT Script Capitals';-inkscape-font-specification:'Matura MT Script Capitals';stroke:#000000"
           id="tspan16">4</tspan></tspan></text>
    <text
       xml:space="preserve"
       style="font-size:7.86234px;white-space:pre;inline-size:31.2424;display:inline;fill:#c40027;fill-opacity:1;stroke-width:0.306;stroke-dasharray:none"
       x="74.714058"
       y="77.962494"
       id="bracket"
       transform="matrix(1.4509628,-0.05371988,0.04298085,1.2771514,12.886593,24.167448)"
       inkscape:label="bracket"
       inkscape:transform-center-x="0.23177846"
       inkscape:transform-center-y="-0.43341645"><tspan
         x="74.714058"
         y="77.962494"
         id="tspan19"><tspan
           style="font-family:'Matura MT Script Capitals';-inkscape-font-specification:'Matura MT Script Capitals';stroke:#000000"
           id="tspan18">)</tspan></tspan></text>
  </g>
</svg>
