<?xml version="1.0" encoding="UTF-8" standalone="no"?>
<!-- Created with Inkscape (http://www.inkscape.org/) -->

<svg
   width="33.992588mm"
   height="32.716408mm"
   viewBox="0 0 33.992588 32.716408"
   version="1.1"
   id="svg1"
   sodipodi:docname="circle-logo.svg"
   inkscape:export-filename="dr4433_logo.png"
   inkscape:export-xdpi="299.98868"
   inkscape:export-ydpi="299.98868"
   inkscape:version="1.3.2 (091e20e, 2023-11-25, custom)"
   inkscape:dataloss="true"
   xmlns:inkscape="http://www.inkscape.org/namespaces/inkscape"
   xmlns:sodipodi="http://sodipodi.sourceforge.net/DTD/sodipodi-0.dtd"
   xmlns="http://www.w3.org/2000/svg"
   xmlns:svg="http://www.w3.org/2000/svg">
  <sodipodi:namedview
     id="namedview1"
     pagecolor="#ffffff"
     bordercolor="#000000"
     borderopacity="0.25"
     inkscape:showpageshadow="2"
     inkscape:pageopacity="0.0"
     inkscape:pagecheckerboard="0"
     inkscape:deskcolor="#d1d1d1"
     inkscape:document-units="mm"
     inkscape:zoom="1.6177912"
     inkscape:cx="482.13885"
     inkscape:cy="420.94431"
     inkscape:window-width="1440"
     inkscape:window-height="830"
     inkscape:window-x="-6"
     inkscape:window-y="-6"
     inkscape:window-maximized="1"
     inkscape:current-layer="layer1" />
  <defs
     id="defs1">
    <inkscape:path-effect
       effect="bspline"
       id="path-effect17"
       is_visible="true"
       lpeversion="1.3"
       weight="33.333333"
       steps="2"
       helper_size="0"
       apply_no_weight="true"
       apply_with_weight="true"
       only_selected="false"
       uniform="false" />
    <inkscape:path-effect
       effect="bspline"
       id="path-effect16"
       is_visible="true"
       lpeversion="1.3"
       weight="33.333333"
       steps="2"
       helper_size="0"
       apply_no_weight="true"
       apply_with_weight="true"
       only_selected="false"
       uniform="false" />
    <inkscape:path-effect
       effect="bspline"
       id="path-effect14"
       is_visible="true"
       lpeversion="1.3"
       weight="33.333333"
       steps="2"
       helper_size="0"
       apply_no_weight="true"
       apply_with_weight="true"
       only_selected="false"
       uniform="false" />
    <inkscape:path-effect
       effect="bspline"
       id="path-effect8"
       is_visible="true"
       lpeversion="1.3"
       weight="33.333333"
       steps="2"
       helper_size="0"
       apply_no_weight="true"
       apply_with_weight="true"
       only_selected="false"
       uniform="false" />
    <inkscape:path-effect
       effect="bspline"
       id="path-effect7"
       is_visible="true"
       lpeversion="1.3"
       weight="33.333333"
       steps="2"
       helper_size="0"
       apply_no_weight="true"
       apply_with_weight="true"
       only_selected="false"
       uniform="false" />
    <inkscape:path-effect
       effect="bspline"
       id="path-effect5"
       is_visible="true"
       lpeversion="1.3"
       weight="33.333333"
       steps="2"
       helper_size="0"
       apply_no_weight="true"
       apply_with_weight="true"
       only_selected="false"
       uniform="false" />
  </defs>
  <g
     inkscape:label="Layer 1"
     inkscape:groupmode="layer"
     id="layer1"
     transform="translate(-116.94377,-101.62969)">
    <ellipse
       style="fill:#38cbf2;fill-opacity:1;stroke-width:0.206005"
       id="path1"
       cx="133.94005"
       cy="117.98789"
       rx="16.99629"
       ry="16.358202" />
    <text
       xml:space="preserve"
       style="font-size:12.7px;white-space:pre;inline-size:31.2424;fill:#a2bb7c;stroke-width:0.306;stroke-dasharray:none"
       x="74.714058"
       y="77.962494"
       id="text1-7"
       transform="matrix(1.2541069,0,0,1.2635253,42.666908,23.660198)"
       inkscape:transform-center-x="-19.059975"
       inkscape:transform-center-y="1.6124786"><tspan
         x="74.714058"
         y="77.962494"
         id="tspan2"><tspan
           style="font-size:8.46667px;fill:#ff2c21;stroke:#000000"
           id="tspan1">33</tspan></tspan></text>
    <g
       id="g18"
       transform="translate(-18.480702,40.232324)">
      <path
         style="fill:none;fill-opacity:1;stroke:#000000;stroke-width:0.206005;stroke-opacity:1"
         d="m 89.876634,62.866306 c 4.582049,-1.507726 9.1641,-3.015453 13.815836,-4.042395 4.65173,-1.026942 9.37314,-1.573097 12.31664,-1.86199 2.94349,-0.288893 4.10906,-0.320523 6.76222,-0.13601 2.65315,0.184512 6.79389,0.585168 10.27266,0.994257 3.47876,0.40909 6.29556,0.826615 8.42083,1.244139 2.12527,0.417525 3.55901,0.835049 4.74042,1.164008 1.18141,0.328958 2.11049,0.569352 2.70067,0.713798 0.59017,0.144446 0.84144,0.192945 1.09272,0.241446"
         id="path5"
         inkscape:path-effect="#path-effect5"
         inkscape:original-d="m 89.876634,62.866306 c 4.582049,-1.507725 9.1641,-3.015453 13.746156,-4.523181 4.72141,-0.546156 9.44282,-1.092312 14.16423,-1.638467 1.16558,-0.03163 2.33115,-0.06326 3.49672,-0.09489 4.14074,0.400656 8.28148,0.801312 12.42221,1.201965 2.8168,0.417526 5.6336,0.835049 8.4504,1.252575 1.43374,0.417523 2.86748,0.835048 4.30122,1.252572 0.92908,0.240392 1.85816,0.480787 2.78724,0.72118 0.25127,0.0485 0.50254,0.097 0.75382,0.145499"
         transform="matrix(0.28282795,0,0,0.31793696,116.43828,64.122066)" />
      <path
         style="fill:none;fill-opacity:1;stroke:#000000;stroke-width:0.206005;stroke-opacity:1"
         d="m 90.731807,67.870273 c 0.251275,0.208764 0.50255,0.417526 0.903743,0.602038 0.401194,0.184511 0.952307,0.344773 2.085149,0.585166 1.132843,0.240392 2.847417,0.560917 6.216384,0.889875 3.368967,0.328959 8.392337,0.666352 11.895387,0.762298 3.50305,0.09595 5.48579,-0.04955 8.83892,-0.362697 3.35313,-0.313143 8.07666,-0.79393 11.20175,-1.154519 3.12508,-0.360589 4.65172,-0.600981 6.55633,-1.146082 1.90462,-0.545102 4.1872,-1.394911 5.72229,-1.972697 1.53509,-0.577786 2.3227,-0.883551 2.81046,-1.052247 0.48777,-0.168696 0.6757,-0.200326 0.93542,-0.280456 0.25972,-0.08013 0.59123,-0.208759 0.81189,-0.273076 0.22066,-0.06432 0.33046,-0.06432 0.51099,-0.111761 0.18054,-0.04745 0.43181,-0.142337 0.68309,-0.237231"
         id="path7"
         inkscape:path-effect="#path-effect7"
         inkscape:original-d="m 90.731807,67.870273 c 0.251275,0.208764 0.50255,0.417526 0.753822,0.626287 0.551114,0.160264 1.102228,0.320524 1.653339,0.480785 1.714574,0.320524 3.429148,0.641048 5.143722,0.961573 5.02336,0.337394 10.04673,0.674788 15.07009,1.012179 1.98274,-0.1455 3.96548,-0.291002 5.94822,-0.436502 4.72352,-0.480785 9.44705,-0.961572 14.17057,-1.442357 1.52665,-0.240393 3.05329,-0.480785 4.57994,-0.721178 2.28258,-0.849809 4.56516,-1.699619 6.84774,-2.549429 0.7876,-0.305763 1.57521,-0.611526 2.36281,-0.917289 0.18793,-0.03163 0.37586,-0.06326 0.56379,-0.09489 0.33151,-0.12863 0.66302,-0.257263 0.99454,-0.385892 0.1098,0 0.2196,0 0.3294,0 0.25127,-0.09489 0.50254,-0.189786 0.75382,-0.284676"
         transform="matrix(0.29379129,0,0,0.31780788,115.04342,64.102268)" />
      <path
         style="fill:none;fill-opacity:1;stroke:#000000;stroke-width:0.206005;stroke-opacity:1"
         d="m 91.010532,62.480414 c -0.266054,0.208762 -0.532108,0.417523 -0.634518,1.243083 -0.102411,0.825559 -0.04118,2.267917 0.02006,3.710274"
         id="path8"
         inkscape:path-effect="#path-effect8"
         inkscape:original-d="m 91.010532,62.480414 c -0.266054,0.208762 -0.532108,0.417523 -0.798163,0.626285 0.06124,1.442357 0.122468,2.884715 0.183703,4.327072"
         transform="matrix(0.28282795,0,0,0.31793696,116.13743,64.248932)" />
      <path
         style="fill:none;fill-opacity:1;stroke:#000000;stroke-width:0.206005;stroke-opacity:1"
         d="m 162.56986,44.460916 c 0.2497,0 0.4994,0 1.63848,0.01121 1.13908,0.01121 3.16753,0.03362 5.19739,-0.0084 2.02986,-0.04203 4.06112,-0.148498 5.48357,-0.05324 1.42244,0.09526 2.23607,0.392258 2.87295,1.500388 0.63687,1.10813 1.09699,3.027394 1.4533,5.051726 0.35631,2.024333 0.60882,4.153736 0.64108,6.997608 0.0323,2.843871 -0.15571,6.402215 -0.2497,9.365166 -0.094,2.962951 -0.094,5.330509 -0.12625,6.865919 -0.0323,1.535411 -0.0968,2.238675 -0.12906,3.240334 -0.0323,1.00166 -0.0323,2.301714 -0.62845,3.921179 -0.5962,1.619466 -1.78858,3.558343 -4.13127,4.761736 -2.34268,1.203393 -5.83567,1.671303 -8.52344,1.884243 -2.68778,0.21294 -4.57034,0.170911 -5.82445,0.149897 -1.25411,-0.02101 -1.87976,-0.02101 -2.70461,-0.127484 -0.82485,-0.10647 -1.8489,-0.31941 -2.73828,-0.42588 -0.88938,-0.10647 -1.64409,-0.10647 -2.49139,-0.127484 -0.84729,-0.02101 -1.78716,-0.06304 -2.77053,-0.0098 -0.98337,0.05324 -2.01022,0.201731 -3.03708,0.350229"
         id="path13"
         transform="matrix(0.28282795,0,0,0.31793696,117.58659,56.573388)"
         inkscape:original-d="m 162.56986,44.460916 c 0.2497,0 0.4994,0 0.7491,0 2.02846,0.02241 4.05691,0.04483 6.08537,0.06724 2.03126,-0.106468 4.06252,-0.212939 6.09379,-0.31941 0.81362,0.296997 1.62725,0.593992 2.44088,0.890987 0.46012,1.919263 0.92024,3.838527 1.38036,5.757791 0.2525,2.129401 0.50501,4.258804 0.75751,6.388205 -0.18797,3.558342 -0.37595,7.116686 -0.56393,10.675028 0,2.36756 0,4.735118 0,7.102676 -0.0645,0.703265 -0.12905,1.406527 -0.19358,2.10979 0,1.300056 0,2.60011 0,3.900167 -1.19238,1.938877 -2.38477,3.877752 -3.57716,5.816629 -3.49298,0.467908 -6.98597,0.935815 -10.47895,1.403726 -1.88257,-0.04203 -3.76513,-0.08406 -5.6477,-0.126085 -0.62565,0 -1.2513,0 -1.87695,0 -1.02405,-0.212939 -2.0481,-0.425878 -3.07215,-0.63882 -0.75471,0 -1.50942,0 -2.26413,0 -0.93988,-0.04203 -1.87975,-0.08406 -2.81963,-0.126082 -1.02686,0.148497 -2.05371,0.296995 -3.08057,0.445492"
         inkscape:path-effect="#path-effect14" />
      <path
         style="fill:none;fill-opacity:1;stroke:#000000;stroke-width:0.206005;stroke-opacity:1"
         d="m 162.56986,44.460916 c 0.2497,0 0.4994,0 1.63848,0.01121 1.13908,0.01121 3.16753,0.03362 5.19739,-0.0084 2.02986,-0.04203 4.06112,-0.148498 5.48357,-0.05324 1.42244,0.09526 2.23607,0.392258 2.87295,1.500388 0.63687,1.10813 1.09699,3.027394 1.4533,5.051726 0.35631,2.024333 0.60882,4.153736 0.64108,6.997608 0.0323,2.843871 -0.15571,6.402215 -0.2497,9.365166 -0.094,2.962951 -0.094,5.330509 -0.12625,6.865919 -0.0323,1.535411 -0.0968,2.238675 -0.12906,3.240334 -0.0323,1.00166 -0.0323,2.301714 -0.62845,3.921179 -0.5962,1.619466 -1.78858,3.558343 -4.13127,4.761736 -2.34268,1.203393 -5.83567,1.671303 -8.52344,1.884243 -2.68778,0.21294 -4.57034,0.170911 -5.82445,0.149897 -1.25411,-0.02101 -1.87976,-0.02101 -2.70461,-0.127484 -0.82485,-0.10647 -1.8489,-0.31941 -2.73828,-0.42588 -0.88938,-0.10647 -1.64409,-0.10647 -2.49139,-0.127484 -0.84729,-0.02101 -1.78716,-0.06304 -2.77053,-0.0098 -0.98337,0.05324 -2.01022,0.201731 -3.03708,0.350229"
         id="path15"
         transform="matrix(0.25318534,-0.00226424,0,0.26513183,121.71693,60.601776)"
         inkscape:original-d="m 162.56986,44.460916 c 0.2497,0 0.4994,0 0.7491,0 2.02846,0.02241 4.05691,0.04483 6.08537,0.06724 2.03126,-0.106468 4.06252,-0.212939 6.09379,-0.31941 0.81362,0.296997 1.62725,0.593992 2.44088,0.890987 0.46012,1.919263 0.92024,3.838527 1.38036,5.757791 0.2525,2.129401 0.50501,4.258804 0.75751,6.388205 -0.18797,3.558342 -0.37595,7.116686 -0.56393,10.675028 0,2.36756 0,4.735118 0,7.102676 -0.0645,0.703265 -0.12905,1.406527 -0.19358,2.10979 0,1.300056 0,2.60011 0,3.900167 -1.19238,1.938877 -2.38477,3.877752 -3.57716,5.816629 -3.49298,0.467908 -6.98597,0.935815 -10.47895,1.403726 -1.88257,-0.04203 -3.76513,-0.08406 -5.6477,-0.126085 -0.62565,0 -1.2513,0 -1.87695,0 -1.02405,-0.212939 -2.0481,-0.425878 -3.07215,-0.63882 -0.75471,0 -1.50942,0 -2.26413,0 -0.93988,-0.04203 -1.87975,-0.08406 -2.81963,-0.126082 -1.02686,0.148497 -2.05371,0.296995 -3.08057,0.445492"
         inkscape:path-effect="#path-effect16" />
      <path
         style="fill:none;fill-opacity:1;stroke:#000000;stroke-width:0.206005;stroke-opacity:1"
         d="m 166.57163,20.443254 c -0.10903,0.245319 -0.21806,0.490638 -0.34072,0.776844 -0.12266,0.286205 -0.25895,0.613297 -0.35435,1.076677 -0.0954,0.46338 -0.14992,1.063049 -0.20443,1.390138 -0.0545,0.327089 -0.10903,0.38161 -0.17718,0.504275 -0.0682,0.122665 -0.14992,0.313457 -0.3816,0.40886 -0.23169,0.0954 -0.6133,0.0954 -0.99491,0.0954"
         id="path17"
         inkscape:path-effect="#path-effect17"
         inkscape:original-d="m 166.57163,20.443254 c -0.10903,0.245319 -0.21806,0.490638 -0.32709,0.735957 -0.13629,0.327092 -0.27258,0.654184 -0.40887,0.981276 -0.0545,0.599669 -0.10902,1.199338 -0.16354,1.799006 -0.0545,0.05452 -0.10903,0.109031 -0.16355,0.163547 -0.0818,0.190803 -0.16354,0.381607 -0.24532,0.572411 -0.3816,0 -0.76321,0 -1.14482,0"
         transform="matrix(0.28282795,0,0,0.31793696,116.43828,64.122066)" />
      <path
         style="fill:#000000;fill-opacity:1;stroke:#000000;stroke-width:0.076369;stroke-opacity:1"
         d="m 145.24646,86.330365 c -1.69058,-0.160823 -2.67355,-0.332559 -3.16945,-0.55374 l -0.3568,-0.159141 0.0372,-0.656235 c 0.0204,-0.360931 0.0644,-0.686815 0.0976,-0.724189 0.0333,-0.03737 0.71827,-0.298043 1.52227,-0.579263 2.6321,-0.920647 5.98609,-1.531205 7.66004,-1.394431 2.61238,0.21345 4.98647,0.592999 6.75329,1.07966 0.99296,0.273505 1.08598,0.280259 3.83919,0.27873 2.42356,-0.0013 2.91633,-0.02839 3.49327,-0.191707 0.92013,-0.26047 1.4776,-0.700194 1.80135,-1.420902 0.25542,-0.56861 0.25741,-0.589122 0.33784,-3.491566 0.0881,-3.180487 0.0254,-4.492692 -0.26677,-5.57714 -0.27154,-1.007996 -0.29415,-1.018776 -2.13645,-1.018776 h -1.54015 l 0.0789,-0.474925 c 0.0434,-0.261208 0.10294,-0.518595 0.13229,-0.57197 0.0302,-0.05491 0.86899,-0.09705 1.93188,-0.09705 2.1608,0 2.23678,0.02773 2.49712,0.911271 0.35426,1.202333 0.44022,2.524781 0.37677,5.796384 -0.0919,4.737068 -0.16611,5.202489 -0.95785,6.006577 -0.72973,0.741102 -2.37252,1.087397 -4.54062,0.957147 -0.7405,-0.04449 -1.90837,-0.08075 -2.59526,-0.08059 -1.23361,2.53e-4 -1.26248,0.0057 -2.35902,0.442779 -2.40279,0.957725 -2.76698,1.048899 -5.45814,1.366424 -2.30577,0.272053 -5.26241,0.334926 -7.17851,0.15265 z"
         id="path18" />
    </g>
    <text
       xml:space="preserve"
       style="font-size:12.7px;white-space:pre;inline-size:31.2424;fill:#a2bb7c;stroke-width:0.306;stroke-dasharray:none"
       x="74.714058"
       y="77.962494"
       id="text25"
       transform="matrix(1.3942681,0,0,1.9729177,16.764845,-33.568033)"
       inkscape:transform-center-x="-21.19015"
       inkscape:transform-center-y="2.5177813"><tspan
         x="74.714058"
         y="77.962494"
         id="tspan4"><tspan
           style="font-size:8.46667px;fill:#ff2c21;stroke:#000000"
           id="tspan3">d</tspan></tspan></text>
    <text
       xml:space="preserve"
       style="font-size:12.7px;white-space:pre;inline-size:31.2424;fill:#a2bb7c;stroke-width:0.306;stroke-dasharray:none"
       x="74.714058"
       y="77.962494"
       id="text27"
       transform="matrix(1.2492842,0,0,1.2634376,39.670589,15.2824)"
       inkscape:transform-center-x="-18.98668"
       inkscape:transform-center-y="1.6123615"><tspan
         x="74.714058"
         y="77.962494"
         id="tspan6"><tspan
           style="font-size:8.46667px;fill:#ff2c21;stroke:#000000"
           id="tspan5">44</tspan></tspan></text>
    <text
       xml:space="preserve"
       style="font-size:12.7px;white-space:pre;inline-size:31.2424;fill:#a2bb7c;stroke-width:0.306;stroke-dasharray:none"
       x="74.714058"
       y="77.962494"
       id="text30"
       transform="matrix(1.7024216,0,0,1.2680001,-0.918056,21.435891)"
       inkscape:transform-center-x="-25.873476"
       inkscape:transform-center-y="1.6181808"><tspan
         x="74.714058"
         y="77.962494"
         id="tspan8"><tspan
           style="font-size:8.46667px;fill:#ff2c21;stroke:#000000"
           id="tspan7">R</tspan></tspan></text>
  </g>
</svg>
